<svg width="65" height="64" viewBox="0 0 65 64" fill="none" xmlns="http://www.w3.org/2000/svg">
<g id="Good_morning">
<ellipse id="sun" cx="32.5" cy="32.0001" rx="29.7917" ry="29.3333" fill="#F0ECFC"/>
<g id="cloud">
<path id="Union" fill-rule="evenodd" clip-rule="evenodd" d="M44.6875 37.3333C48.473 37.3333 51.7403 39.5181 53.2595 42.6769C58.2872 42.9103 62.2917 47.0604 62.2917 52.1458V54.1608C62.2917 55.1765 61.4683 55.9999 60.4526 55.9999H44.6875L43.3334 55.9999H28.5546C27.7421 55.9999 27.0834 55.3412 27.0834 54.5287V53.4583C27.0834 48.9709 30.7211 45.3333 35.2084 45.3333C35.2205 45.3333 35.2327 45.3333 35.2449 45.3333H35.3044C35.9614 40.8102 39.9121 37.3333 44.6875 37.3333Z" fill="white"/>
<path id="Intersect" fill-rule="evenodd" clip-rule="evenodd" d="M56.8752 44C56.8752 47.2593 55.1784 50.1284 52.6072 51.7976C53.5931 50.3254 54.1669 48.562 54.1669 46.6666C54.1669 45.2393 53.8414 43.8867 53.2596 42.677C54.5451 42.7367 55.7637 43.0524 56.8655 43.5743C56.8719 43.7154 56.8752 43.8573 56.8752 44Z" fill="#EEEEEE"/>
</g>
</g>
</svg>
