<svg width="65" height="64" viewBox="0 0 65 64" fill="none" xmlns="http://www.w3.org/2000/svg">
<g id="Good_night">
<path id="Subtract" d="M57.1897 42.9768C53.7898 44.4907 50.0157 45.3334 46.0417 45.3334C31.084 45.3334 18.9584 33.3944 18.9584 18.6668C18.9584 14.7538 19.8143 11.0376 21.352 7.68994C11.9551 11.8742 5.41669 21.1852 5.41669 31.9999C5.41669 46.7275 17.5423 58.6666 32.5 58.6666C43.4836 58.6666 52.9401 52.229 57.1897 42.9768Z" fill="#cccccc"/>
<path id="Star 10" d="M47.3958 22.6667L47.8724 23.8564C48.79 26.1473 50.6317 27.9607 52.9584 28.8642L54.1667 29.3334L52.9584 29.8026C50.6317 30.7061 48.79 32.5195 47.8724 34.8104L47.3958 36.0001L46.9193 34.8104C46.0017 32.5195 44.1599 30.7061 41.8333 29.8026L40.625 29.3334L41.8333 28.8642C44.1599 27.9607 46.0017 26.1473 46.9193 23.8564L47.3958 22.6667Z" fill="#999999"/>
<path id="Star 11" d="M32.5 16L32.8812 16.9518C33.6153 18.7845 35.0887 20.2352 36.95 20.958L37.9166 21.3333L36.95 21.7087C35.0887 22.4315 33.6153 23.8822 32.8812 25.7149L32.5 26.6667L32.1187 25.7149C31.3846 23.8822 29.9113 22.4315 28.0499 21.7087L27.0833 21.3333L28.0499 20.958C29.9113 20.2352 31.3846 18.7845 32.1187 16.9518L32.5 16Z" fill="#999999"/>
<path id="Star 12" d="M44.6875 8L44.9734 8.71382C45.524 10.0883 46.629 11.1764 48.025 11.7185L48.75 12L48.025 12.2815C46.629 12.8236 45.524 13.9117 44.9734 15.2862L44.6875 16L44.4016 15.2862C43.851 13.9117 42.746 12.8236 41.35 12.2815L40.625 12L41.35 11.7185C42.746 11.1764 43.851 10.0883 44.4016 8.71382L44.6875 8Z" fill="#999999"/>
</g>
</svg>
